<svg width="54" height="63" viewBox="0 0 54 63" fill="none" xmlns="http://www.w3.org/2000/svg">
<g id="css-3 1" clip-path="url(#clip0_73_133)">
<path id="Vector" d="M4.52163 56.0051L0 0.604004L54 0.715337L49.2188 56.0051L27.2038 62.396L4.52163 56.0051Z" fill="#1B73BA"/>
<path id="Vector_2" d="M27.2036 57.0455V5.88037L49.4412 5.95459L45.4757 51.7321L27.2036 57.0455Z" fill="#1C88C7"/>
<path id="Vector_3" d="M43.919 12.4202H9.71045L10.6372 19.108H26.8703L10.8967 25.9823L11.823 32.4474H35.3578L34.5052 41.4763L26.5367 43.0372L19.3098 41.1794L18.7537 36.0516H12.1195L13.0088 46.716L27.2409 50.6917L40.8802 46.3444L42.6221 25.499H28.2041L43.9186 18.9596L43.919 12.4202Z" fill="white"/>
</g>
<defs>
<clipPath id="clip0_73_133">
<rect width="54" height="62" fill="white" transform="translate(0 0.5)"/>
</clipPath>
</defs>
</svg>
