<svg width="729" height="813" viewBox="0 0 729 813" fill="none" xmlns="http://www.w3.org/2000/svg">
<g filter="url(#filter0_d_1_4)">
<path d="M715.838 532.177C665.217 493.381 636.773 472.316 587.338 420.677C569.313 415.605 554.524 408.881 543.338 400.251C524.303 384.419 498.753 371.182 454.338 359.596C303.395 291.768 222.437 262.829 199.338 279.037C195.402 281.799 193.146 285.871 192.51 291.285C195.613 287.335 210.238 291.542 233.838 301.633C266.134 315.444 315.239 340.274 374.624 370.303C390.675 378.42 407.477 386.916 424.901 395.677C439.944 403.241 455.45 411.002 471.338 418.886C479.534 422.954 487.831 427.054 496.218 431.177C522.758 444.224 550.2 457.498 578.181 470.677C623.171 491.867 669.556 512.813 715.838 532.177Z" fill="#283C81"/>
<path d="M543.338 400.251C554.524 408.881 569.313 415.605 587.338 420.677C581.618 393.757 576.403 369.748 571.593 347.177C571.165 345.166 570.739 343.166 570.317 341.177C554.192 358.386 547.091 370.068 543.338 400.251Z" fill="#283C81"/>
<path d="M4.838 488.677C98.8751 413.544 135.099 371.231 192.338 295.677C191.682 293.703 191.752 292.25 192.51 291.285C193.146 285.871 195.402 281.799 199.338 279.037C178.843 291.311 166.349 310.486 142.838 338.677C131.431 363.032 6.44159 464.464 4.838 488.677Z" fill="#283C81"/>
<path d="M454.338 359.596C498.753 371.182 524.303 384.419 543.338 400.251C547.091 370.068 554.192 358.386 570.317 341.177C517.84 304.468 493.126 276.85 454.338 219.677C454.338 219.677 403.838 252.177 358.838 266.177C380.455 299.047 414.649 318.544 454.338 359.596Z" fill="#EEB05D"/>
<path d="M304.588 181.927L284.838 191.677V171.427C266.194 192.545 255.452 204.404 226.838 226.177C187.656 262.683 170.244 293.504 142.838 338.677C166.349 310.486 178.843 291.311 199.338 279.037C222.437 262.829 303.395 291.768 454.338 359.596C414.649 318.544 380.455 299.047 358.838 266.177C344.996 247.143 337.552 234.375 330.288 221.917C323.358 210.03 316.591 198.425 304.588 181.927Z" fill="#EEB05D"/>
<path d="M142.838 338.677C170.244 293.504 187.656 262.683 226.838 226.177L220.338 198.456C164.028 268.229 154.245 314.322 142.838 338.677Z" fill="#EEB05D"/>
<path d="M192.338 295.677C135.099 371.231 98.8751 413.544 4.838 488.677C-15.662 522.677 74.1768 586.786 297.838 634.177V618.041C292.132 618.024 286.297 617.905 280.338 617.677C241.849 619.507 209.841 609.218 188.338 587.677C184.574 571.245 181.687 563.114 188.338 550.177C189.286 537.101 187.785 529.438 183.338 515.483C180.247 508.339 178.274 500.9 176.838 490.177C175.858 510.524 178.517 522.309 183.165 542.909L183.338 543.677C183.281 544.39 183.231 545.096 183.182 545.793C182.592 554.194 182.095 561.268 169.338 563.677C171.54 554.083 171.472 548.488 169.338 538.177C162.178 537.361 150.771 526.997 142.838 490.177C136.846 495.658 131.831 498.899 125.838 501.075C121.334 502.71 116.277 503.745 109.838 504.677C118.267 498.989 121.733 495.815 125.838 490.177C134.635 472.333 137.134 459.72 140.496 442.742C141.214 439.117 141.971 435.293 142.838 431.177C148.177 413.456 153.873 401.61 163.533 389.677C168.668 383.334 174.922 376.966 182.838 369.677C171.586 378.68 130.152 408.193 115.838 400.251C116.341 399.969 116.838 399.69 117.328 399.415C117.366 399.394 117.404 399.373 117.441 399.352C117.491 399.324 117.54 399.296 117.59 399.268C117.607 399.259 117.625 399.249 117.643 399.239C133.722 390.221 143.127 384.947 154.838 372.677C160.759 365.487 166.032 358.753 170.893 352.545C189.017 329.399 201.413 313.568 220.338 308.677L233.838 301.633C210.238 291.542 195.613 287.335 192.51 291.285C192.348 292.662 192.291 294.126 192.338 295.677Z" fill="#1D2D63"/>
<path d="M125.838 490.177C121.733 495.815 118.267 498.989 109.838 504.677C116.277 503.745 121.334 502.71 125.838 501.075C126.012 500.901 126.189 500.727 126.369 500.551C130.722 496.27 136.577 490.512 144.838 455.177C156.171 433.296 160.519 425.46 171.838 416.677C163.846 428.351 159.454 435.015 154.838 451.177C146.331 464.391 144.245 473.216 142.838 490.177C150.771 526.997 162.178 537.361 169.338 538.177C171.472 548.488 171.54 554.083 169.338 563.677C169.674 563.472 170.002 563.274 170.321 563.081L170.336 563.072C175.126 560.178 178.1 558.381 178.838 551.677C179.61 536.824 176.925 527.099 172.467 510.955C172.261 510.21 172.051 509.451 171.838 508.677C168.883 486.655 168.896 474.063 171.838 451.177C177.103 440.723 180.896 436.747 188.338 431.177C181.79 442.06 179.437 448.729 178.838 462.177C177.216 473.052 176.347 479.151 176.838 490.177C178.274 500.9 180.247 508.339 183.338 515.483C185.639 520.8 188.559 525.954 192.338 532.177C192.279 530.335 192.222 528.558 192.166 526.841C191.16 495.701 190.784 484.083 195.338 462.177C195.855 438.196 200.457 423.008 206.999 401.421C208.517 396.414 210.139 391.062 211.838 385.177C201.088 423.921 198.898 445.38 202.006 483.177C202.419 483.84 202.861 484.504 203.338 485.177C204.013 481.401 204.646 477.759 205.258 474.229L205.259 474.226C210.417 444.504 214.198 422.721 230.838 395.677C237.638 381.533 241.508 374.264 244.351 369.677C215.548 370.164 196.958 377.137 164.131 389.453L163.533 389.677C153.873 401.61 148.177 413.456 142.838 431.177C141.971 435.293 141.214 439.117 140.496 442.742C137.134 459.72 134.635 472.333 125.838 490.177Z" fill="#FCFFFF"/>
<path d="M230.838 395.677C229.456 423.689 230.444 438.152 233.838 463.677C240.679 450.219 246.549 443.397 250.338 427.677C251.649 455.763 258.63 470.26 273.838 494.177C275.438 485.683 273.914 481.421 271.338 472.927C286.323 498.513 296.596 507.556 304.133 508.677L304.078 508.442C298.292 483.598 295.031 469.596 296.338 433.177C302.285 417.392 305.163 413.138 309.838 410.177C311.621 435.325 311.089 451.772 310.394 473.221L310.394 473.224L310.393 473.227L310.393 473.231L310.393 473.236C310.393 473.239 310.393 473.241 310.393 473.244C310.206 479.026 310.007 485.172 309.838 491.95C324.027 484.844 332.859 468.861 345.838 440.177C346.796 455.444 346.729 464.472 345.838 481.177C361 451.325 367.792 433.199 371.838 392.177C324.418 376.17 296.298 371.876 244.351 369.677C241.508 374.264 237.638 381.533 230.838 395.677Z" fill="#FCFFFF"/>
<path d="M371.838 392.177C376.819 430.883 390.449 451.93 402.838 462.177C400.714 446.259 399.853 437.209 399.338 420.677C400.34 447.17 416.587 467.298 457.779 490.177C466.879 495.232 477.198 500.421 488.838 505.842C494.228 508.353 499.902 510.913 505.87 513.534C506.357 513.748 506.847 513.962 507.338 514.177C501.569 503.987 498.474 498.201 493.338 487.677C485.256 467.843 477.504 457.676 459.838 440.677C460.176 433.553 459.741 430.248 457.779 425.677C462.087 428.61 464.99 429.867 471.338 431.177C472.738 426.852 472.523 424.088 471.338 418.886C455.45 411.002 439.944 403.241 424.901 395.677C406.761 397.613 395.393 397.167 371.838 392.177Z" fill="#FCFFFF"/>
<path d="M115.838 400.251C130.152 408.193 171.586 378.68 182.838 369.677C174.922 376.966 168.668 383.334 163.533 389.677L164.131 389.453C196.958 377.137 215.548 370.164 244.351 369.677C296.298 371.876 324.418 376.17 371.838 392.177C395.393 397.167 406.761 397.613 424.901 395.677C407.477 386.916 390.675 378.42 374.624 370.303C315.239 340.274 266.134 315.444 233.838 301.633L220.338 308.677C201.413 313.568 189.017 329.399 170.893 352.545C166.032 358.753 160.759 365.487 154.838 372.677C143.127 384.947 133.722 390.221 117.643 399.239L117.59 399.268L117.441 399.352L117.328 399.415C116.838 399.69 116.341 399.969 115.838 400.251Z" fill="#EEF2F2"/>
<path d="M142.838 490.177C144.245 473.216 146.331 464.391 154.838 451.177C159.454 435.015 163.846 428.351 171.838 416.677C160.519 425.46 156.171 433.296 144.838 455.177C136.577 490.512 130.722 496.27 126.369 500.551C126.189 500.727 126.012 500.901 125.838 501.075C131.831 498.899 136.846 495.658 142.838 490.177Z" fill="#EEF2F2"/>
<path d="M183.165 542.909C178.517 522.309 175.858 510.524 176.838 490.177C176.347 479.151 177.216 473.052 178.838 462.177C179.437 448.729 181.79 442.06 188.338 431.177C180.896 436.747 177.103 440.723 171.838 451.177C168.896 474.063 168.883 486.655 171.838 508.677C172.051 509.451 172.261 510.21 172.467 510.955C176.925 527.099 179.61 536.824 178.838 551.677C178.1 558.381 175.126 560.178 170.336 563.072L170.321 563.081C170.002 563.274 169.674 563.472 169.338 563.677C182.095 561.268 182.592 554.194 183.182 545.793C183.231 545.096 183.281 544.39 183.338 543.677L183.165 542.909Z" fill="#EEF2F2"/>
<path d="M307.338 508.677L304.338 494.177C306.264 493.564 308.092 492.824 309.838 491.95C310.007 485.172 310.206 479.026 310.393 473.244L310.393 473.236L310.393 473.231L310.393 473.227L310.394 473.224L310.394 473.221C311.089 451.772 311.621 435.325 309.838 410.177C305.163 413.138 302.285 417.392 296.338 433.177C295.031 469.596 298.292 483.598 304.078 508.442L304.133 508.677C305.26 508.845 306.326 508.835 307.338 508.677Z" fill="#EEF2F2"/>
<path d="M195.338 462.177C197.14 472.105 198.52 477.587 202.006 483.177C198.898 445.38 201.088 423.921 211.838 385.177C210.139 391.062 208.517 396.414 206.999 401.421C200.457 423.008 195.855 438.196 195.338 462.177Z" fill="#EEF2F2"/>
<path d="M459.838 440.677C477.504 457.676 485.256 467.843 493.338 487.677L493.4 487.548C495.53 483.09 496.777 480.482 486.55 444.867C486.056 443.509 485.654 442.111 485.338 440.677C485.759 442.122 486.163 443.518 486.55 444.867C491.128 457.468 503.52 466.671 526.838 470.677C522.055 464.61 517.161 459.59 512.712 455.027C504.642 446.75 498.037 439.975 496.218 431.177C487.831 427.054 479.534 422.954 471.338 418.886C472.523 424.088 472.738 426.852 471.338 431.177C464.99 429.867 462.087 428.61 457.779 425.677C459.741 430.248 460.176 433.553 459.838 440.677Z" fill="#EEF2F2"/>
<path d="M233.838 463.677C230.444 438.152 229.456 423.689 230.838 395.677C214.198 422.721 210.417 444.504 205.259 474.226L205.258 474.229C204.646 477.759 204.013 481.401 203.338 485.177C202.861 484.504 202.419 483.84 202.006 483.177C198.52 477.587 197.14 472.105 195.338 462.177C190.784 484.083 191.16 495.701 192.166 526.841C192.222 528.558 192.279 530.335 192.338 532.177C188.559 525.954 185.639 520.8 183.338 515.483C187.785 529.438 189.286 537.101 188.338 550.177C181.687 563.114 184.574 571.245 188.338 587.677C209.841 609.218 241.849 619.507 280.338 617.677C286.297 617.905 292.132 618.024 297.838 618.041C302.249 618.054 306.583 618.005 310.838 617.897C357.14 616.724 394.033 608.551 418.338 596.537C432.01 589.778 441.699 581.805 446.838 573.177L454.338 580.177C455.321 580.301 456.341 580.449 457.389 580.601L457.393 580.601C465.601 581.79 475.496 583.223 482.338 575.677C509.714 550.519 511.342 532.541 505.87 513.534C499.902 510.913 494.228 508.353 488.838 505.842C486.098 536.752 482.307 552.692 457.779 570.177C466.915 556.041 469.062 547.663 469.338 532.177C463.68 549.843 458.647 556.743 446.338 563.677C456.889 536.745 461.265 521.197 457.779 490.177C416.587 467.298 400.34 447.17 399.338 420.677C399.853 437.209 400.714 446.259 402.838 462.177C390.449 451.93 376.819 430.883 371.838 392.177C367.792 433.199 361 451.325 345.838 481.177C346.729 464.472 346.796 455.444 345.838 440.177C332.859 468.861 324.027 484.844 309.838 491.95C308.092 492.824 306.264 493.564 304.338 494.177L307.338 508.677C306.326 508.835 305.26 508.845 304.133 508.677C296.596 507.556 286.323 498.513 271.338 472.927C273.914 481.421 275.438 485.683 273.838 494.177C258.63 470.26 251.649 455.763 250.338 427.677C246.549 443.397 240.679 450.219 233.838 463.677Z" fill="#FEEFEA"/>
<path d="M457.779 490.177C461.265 521.197 456.889 536.745 446.338 563.677C458.647 556.743 463.68 549.843 469.338 532.177C469.062 547.663 466.915 556.041 457.779 570.177C482.307 552.692 486.098 536.752 488.838 505.842C477.198 500.421 466.879 495.232 457.779 490.177Z" fill="#EEF2F2"/>
<path d="M437.838 634.177C665.4 586.438 735.054 563.521 715.838 532.177C669.556 512.813 623.171 491.867 578.181 470.677C575.959 497.277 576.188 510.476 578.181 532.177C569.767 520.271 566.047 507.892 560.838 477.677C561.742 515.737 561.065 537.094 526.838 575.677V547.177C519.039 574.492 515.242 585.24 510.838 585.677C512.573 578.75 510.155 574.65 503.338 567.177L502.692 567.923C490.473 582.029 483.425 590.166 473.338 610.177C469.774 605.135 468.569 601.366 469.338 591.177C464.941 598.362 463.1 603.781 462.838 620.177C449.458 611.53 446.968 604.747 446.338 591.177C439.333 608.236 434.711 614.929 425.939 624.677C426.44 627.481 426.736 630.584 426.838 634.177H432.338H437.838Z" fill="#1D2D63"/>
<path d="M323.838 624.677L336.338 635.677C333.994 636.334 338.885 635.001 336.338 635.677C377.036 624.264 396.807 614.036 415.338 602.177L418.338 596.537C394.033 608.551 357.14 616.724 310.838 617.897L323.838 624.677Z" fill="#F2DDD6"/>
<path d="M493.338 487.677C498.474 498.201 501.569 503.987 507.338 514.177C506.847 513.962 506.357 513.748 505.87 513.534C511.342 532.541 509.714 550.519 482.338 575.677C475.496 583.223 465.601 581.79 457.393 580.601L457.389 580.601C456.341 580.449 455.321 580.301 454.338 580.177L446.838 573.177C441.699 581.805 432.01 589.778 418.338 596.537L415.338 602.177C421.017 610.46 424.422 616.2 425.939 624.677C434.711 614.929 439.333 608.236 446.338 591.177C446.968 604.747 449.458 611.53 462.838 620.177C463.1 603.781 464.941 598.362 469.338 591.177C468.569 601.366 469.774 605.135 473.338 610.177C483.425 590.166 490.473 582.029 502.692 567.923L503.338 567.177C510.155 574.65 512.573 578.75 510.838 585.677C515.242 585.24 519.039 574.492 526.838 547.177V575.677C561.065 537.094 561.742 515.737 560.838 477.677C566.047 507.892 569.767 520.271 578.181 532.177C576.188 510.476 575.959 497.277 578.181 470.677C550.2 457.498 522.758 444.224 496.218 431.177C498.037 439.975 504.642 446.75 512.712 455.027C517.161 459.59 522.055 464.61 526.838 470.677C503.52 466.671 491.128 457.468 486.55 444.867C496.777 480.482 495.53 483.09 493.4 487.548L493.338 487.677Z" fill="#D1DEDE"/>
<path d="M336.338 635.677L327.338 646.677C330.501 658.276 336.511 662.508 344.921 664.677C351.175 659.554 357.052 655.105 356.838 645.677L350.2 637.933C346.318 637.665 341.849 636.903 336.338 635.677Z" fill="#BFE2F5"/>
<path d="M317.838 664.677C318.622 669.033 322.945 676.413 327.883 681.677C327.527 681.325 328.223 682.04 327.883 681.677C330.689 684.453 334.967 687.264 338.586 688.82C338.25 688.693 338.915 688.962 338.586 688.82C339.484 689.161 340.402 689.449 341.338 689.677C344.091 689.484 348.071 688.59 350.338 687.91C349.846 688.095 350.85 687.757 350.338 687.91C354.48 686.358 357.935 683.67 361.206 679.177C360.972 679.52 361.442 678.853 361.206 679.177C363.198 676.259 365.84 671.644 367.838 667.177C369.024 660.907 369.742 655.573 356.838 645.677C357.052 655.105 351.175 659.554 344.921 664.677C336.511 662.508 330.501 658.276 327.338 646.677C323.247 652.136 321.002 655.394 317.838 664.677Z" fill="#E6A271"/>
<path d="M307.338 757.177L327.883 681.677L305.838 756.061C306.322 756.396 306.821 756.767 307.338 757.177Z" fill="#1A2650"/>
<path d="M338.586 688.82L337.588 757.177C337.925 757.416 338.257 757.646 338.586 757.867V688.82Z" fill="#1A2650"/>
<path d="M350.338 687.91L366.838 757.867C366.997 757.672 367.418 757.299 367.831 756.933C368.225 756.583 368.613 756.238 368.761 756.061L350.338 687.91Z" fill="#1A2650"/>
<path fill-rule="evenodd" clip-rule="evenodd" d="M323.838 624.677C312.898 659.023 310.338 665.06 310.506 675.704C309.527 677.479 308.482 679.375 307.338 681.677L269.838 740.177L280.338 752.077L284.838 757.177C287.804 757.306 290.105 756.231 292.338 755.188C296.089 753.436 299.647 751.774 305.838 756.061L327.883 681.677L307.338 757.177C319.259 752.122 325.762 752.314 335.838 756.438C336.409 756.672 336.992 756.918 337.588 757.177L338.586 688.82V757.867C349.783 765.414 355.361 763.694 366.838 757.867L350.338 687.91L368.761 756.061C380.581 741.898 386.6 740.083 394.338 757.177L361.206 679.177L395.338 756.979C410.859 753.84 414.766 749.852 415.338 740.177C405.74 723.624 397.614 711.641 387.214 696.303L387.205 696.289C384.145 691.776 380.888 686.973 377.338 681.677C383.547 661.443 378.764 652.577 365.338 635.677C360.588 637.619 356.064 638.339 350.2 637.933L356.838 645.677C369.742 655.573 369.024 660.907 367.838 667.177C365.84 671.644 363.198 676.259 361.206 679.177C357.935 683.67 354.48 686.358 350.338 687.91C348.071 688.59 344.091 689.484 341.338 689.677C340.402 689.449 339.484 689.161 338.586 688.82C334.967 687.264 330.689 684.453 327.883 681.677C322.945 676.413 318.622 669.033 317.838 664.677C321.002 655.394 323.247 652.136 327.338 646.677L336.338 635.677L323.838 624.677Z" fill="#1B295B"/>
<path d="M361.206 679.177L394.338 757.177C394.483 757.149 394.627 757.121 394.77 757.093C394.961 757.055 395.15 757.017 395.338 756.979L361.206 679.177Z" fill="#1A2650"/>
<path d="M365.338 635.677C378.764 652.577 383.547 661.443 377.338 681.677C396.536 662.36 415.338 637.933 408.838 627.677C402.338 617.421 365.338 635.677 365.338 635.677Z" fill="#4359A5"/>
<path d="M377.338 681.677C401.839 666.416 415.486 657.802 426.838 634.177C426.736 630.584 426.44 627.481 425.939 624.677C424.422 616.2 421.017 610.46 415.338 602.177C396.807 614.036 377.036 624.264 336.338 635.677C341.796 636.871 344.844 637.449 350.2 637.933C356.064 638.339 360.588 637.619 365.338 635.677C365.338 635.677 402.338 617.421 408.838 627.677C415.338 637.933 396.536 662.36 377.338 681.677Z" fill="#2C4292"/>
<path d="M310.506 675.704C310.338 665.06 312.898 659.023 323.838 624.677C308.702 633.267 300.827 639.146 293.132 660.677C294.009 668.89 298.407 675.107 307.338 681.677C308.482 679.375 309.527 677.479 310.506 675.704Z" fill="#4359A5"/>
<path d="M323.838 624.677L310.838 617.897C306.583 618.005 302.249 618.054 297.838 618.041V634.177C294.164 645.378 292.392 653.74 293.132 660.677C300.827 639.146 308.702 633.267 323.838 624.677Z" fill="#2C4292"/>
<path d="M233.838 740.177C225.971 764.664 220.916 778.379 203.338 802.677H297.838L307.338 757.177C306.821 756.767 306.322 756.396 305.838 756.061C299.647 751.774 296.089 753.436 292.338 755.188C290.105 756.231 287.804 757.306 284.838 757.177L280.338 752.077C278.28 754.27 276.943 755.309 274.338 756.933C272.239 746.984 271.332 744.097 269.838 740.177C261.53 724.065 258.664 711.43 255.399 685.177C252.328 691.659 249.645 698.796 246.838 708.177C241.643 712.469 238.761 715.077 233.838 721.177C232.802 730.27 232.997 734.115 233.838 740.177Z" fill="#F9DDA4"/>
<path d="M394.338 757.177C406.354 772.986 410.999 783.159 417.088 802.677H523.838C515.982 793.054 511.126 787.964 498.338 781.677C498.955 777.909 499.944 776.037 504.338 773.677L493.338 755.188C479.776 744.447 474.069 736.101 464.989 722.819C464.293 721.801 463.578 720.755 462.838 719.677C456.913 732.994 452.564 739.961 443.338 751.677C430.312 743.815 425.423 738.105 420.838 725.677C419.402 732.36 418.247 735.606 415.338 740.177C414.766 749.852 410.859 753.84 395.338 756.979C395.15 757.017 394.961 757.055 394.77 757.093C394.627 757.121 394.483 757.149 394.338 757.177Z" fill="#F9DDA4"/>
<path d="M269.838 740.177C271.332 744.097 272.239 746.984 274.338 756.933C276.943 755.309 278.28 754.27 280.338 752.077L269.838 740.177Z" fill="#8094D3"/>
<path d="M536.338 802.677C529.532 801.252 525.604 799.498 517.338 785.677C509.529 772.588 504.109 766.038 493.338 755.188L504.338 773.677C499.944 776.037 498.955 777.909 498.338 781.677C511.126 787.964 515.982 793.054 523.838 802.677H536.338Z" fill="#8094D3"/>
<path d="M367.838 802.677C369.26 784.91 368.281 775.635 366.838 757.867C355.361 763.694 349.783 765.414 338.586 757.867C338.257 757.646 337.925 757.416 337.588 757.177C333.544 774.866 332.294 784.82 332.838 802.677H367.838Z" fill="#152251"/>
<path d="M324.338 172.177V124.177L284.838 151.177V171.427V191.677L304.588 181.927L324.338 172.177Z" fill="#BFE2F5"/>
<path d="M600.242 194.956C587.067 177.569 576.461 166.247 564.838 157.42V166.177C581.054 176.8 590.576 185.045 600.242 194.956Z" fill="#FED58B"/>
<path fill-rule="evenodd" clip-rule="evenodd" d="M564.838 157.42C556.347 150.972 547.313 145.854 536.338 140.677C543.536 201.349 551.273 247.17 560.614 294.177C563.665 309.531 566.887 325.011 570.317 341.177C517.84 304.468 493.126 276.85 454.338 219.677C454.338 219.677 403.838 252.177 358.838 266.177C344.996 247.143 337.552 234.375 330.288 221.917C323.358 210.03 316.591 198.425 304.588 181.927L324.338 172.177V124.177L284.838 151.177V171.427C266.194 192.545 255.452 204.404 226.838 226.177L220.338 198.456C285.881 117.241 373.383 26.0687 415.338 10.1769C493.338 -19.368 575.838 27.1769 606.338 82.1769C615.763 99.1722 619.363 117.218 619.838 134.042L564.838 157.42ZM600.242 194.956C602.212 197.557 604.24 200.293 606.338 203.177C606.338 203.177 606.532 202.756 606.875 201.954C604.604 199.506 602.419 197.189 600.242 194.956Z" fill="#283C81"/>
<path d="M619.838 134.042L564.838 157.42C576.461 166.247 587.067 177.569 600.242 194.956C602.419 197.189 604.604 199.506 606.875 201.954C609.495 195.813 620.778 167.317 619.838 134.042Z" fill="#FFD78B"/>
<path d="M627.838 140.677L619.838 134.042C620.778 167.317 609.495 195.813 606.875 201.954C609.536 204.824 612.315 207.873 615.338 211.177C623.218 186.647 626.783 172.039 627.838 140.677Z" fill="#FED58B"/>
<path d="M615.338 211.177C606.604 215.503 602.88 218.982 597.338 226.177C598.559 236.503 602.045 240.952 611.838 247.177C618.87 244.65 623.155 242.463 625.531 238.764C626.224 236.406 626.988 233.894 627.838 231.177C624.026 225.135 621.431 220.99 615.338 211.177Z" fill="#F4B071"/>
<path d="M560.614 294.177C563.665 309.531 566.887 325.011 570.317 341.177C570.739 343.166 571.165 345.166 571.593 347.177C579.484 347.66 584.929 347.229 602.338 341.177L604.54 331.677C609.413 308.005 612.288 295.011 618.102 273.177C619.991 260.404 621.642 251.994 625.531 238.764C623.155 242.463 618.87 244.65 611.838 247.177C601.511 269.023 586.159 277.822 560.614 294.177Z" fill="#F9C45F"/>
<path d="M650.838 312.677C634.757 300.433 628.121 291.272 618.102 273.177C612.288 295.011 609.413 308.005 604.54 331.677C615.162 347.842 624.096 352.931 641.838 359.596C643.962 340.237 645.837 329.893 650.838 312.677Z" fill="#BFE2F5"/>
<path fill-rule="evenodd" clip-rule="evenodd" d="M297.838 802.677L307.338 757.177C319.259 752.122 325.762 752.314 335.838 756.438C331.965 771.249 331.788 780.712 331.547 793.572C331.494 796.41 331.438 799.414 331.338 802.677H297.838Z" fill="#283C81"/>
<path d="M332.838 802.677C332.294 784.82 333.544 774.866 337.588 757.177C336.992 756.918 336.409 756.672 335.838 756.438C331.965 771.249 331.788 780.712 331.547 793.572C331.494 796.41 331.438 799.414 331.338 802.677H332.838Z" fill="#1E2E68"/>
<path fill-rule="evenodd" clip-rule="evenodd" d="M394.338 757.177C406.354 772.986 410.999 783.159 417.088 802.677H369.338C369.377 799.397 369.44 796.404 369.499 793.579L369.5 793.574C369.757 781.387 369.948 772.329 367.831 756.933C368.225 756.583 368.613 756.238 368.761 756.061C380.581 741.898 386.6 740.083 394.338 757.177Z" fill="#283C81"/>
<path d="M366.838 757.867C368.281 775.635 369.26 784.91 367.838 802.677H369.338C369.377 799.397 369.44 796.404 369.499 793.579L369.5 793.574C369.757 781.387 369.948 772.329 367.831 756.933C367.418 757.299 366.997 757.672 366.838 757.867Z" fill="#1E2E68"/>
<path d="M269.94 660.612L269.838 660.677C267.025 664.934 264.558 668.74 262.338 672.404L269.838 740.177L274.338 657.775C272.945 658.681 271.484 659.62 269.946 660.607L269.94 660.612Z" fill="#F9DDA4"/>
<path fill-rule="evenodd" clip-rule="evenodd" d="M269.838 740.177L274.338 657.775C279.356 654.508 283.483 651.657 287.036 648.452L269.838 740.177ZM262.338 672.404L269.838 740.177C261.53 724.065 258.664 711.43 255.399 685.177C257.481 680.784 259.74 676.691 262.338 672.404Z" fill="#8094D3"/>
<path d="M269.838 740.177L307.338 681.677C298.407 675.107 294.009 668.89 293.132 660.677C292.392 653.74 294.164 645.378 297.838 634.177C294.694 640.307 291.273 644.631 287.036 648.452L269.838 740.177Z" fill="#F9DDA4"/>
<path d="M415.338 719.677L420.838 725.677L424.838 719.677L419.338 710.177L415.338 719.677Z" fill="#F9DDA4"/>
<path d="M457.838 714.177L462.838 719.677L466.838 712.177L460.338 704.677L457.838 714.177Z" fill="#F9DDA4"/>
<path fill-rule="evenodd" clip-rule="evenodd" d="M516.771 757.867C514.895 751.798 513.348 746.297 511.889 741.111C505.903 719.829 501.41 703.853 481.838 675.704C468.372 658.248 456.729 649.325 432.338 634.177H426.838C415.486 657.802 401.839 666.416 377.338 681.677C380.888 686.973 384.145 691.776 387.205 696.289L387.214 696.303C397.614 711.641 405.74 723.624 415.338 740.177C418.247 735.606 419.402 732.36 420.838 725.677C425.423 738.105 430.312 743.815 443.338 751.677C452.564 739.961 456.913 732.994 462.838 719.677C463.578 720.755 464.293 721.801 464.989 722.819C474.069 736.101 479.776 744.447 493.338 755.188C504.109 766.038 509.529 772.588 517.338 785.677C517.169 779.793 517.073 774.201 516.982 768.842C516.918 765.076 516.855 761.425 516.771 757.867ZM462.838 719.677L457.838 714.177L460.338 704.677L466.838 712.177L462.838 719.677ZM420.838 725.677L424.838 719.677L419.338 710.177L415.338 719.677L420.838 725.677Z" fill="#8094D3"/>
<path d="M485.338 660.677L437.838 634.177H432.338C456.729 649.325 468.372 658.248 481.838 675.704C501.41 703.853 505.903 719.829 511.889 741.111C513.348 746.297 514.895 751.798 516.771 757.867C515.945 723.157 512.991 697.324 485.338 660.677Z" fill="#7A8CC8"/>
</g>
<defs>
<filter id="filter0_d_1_4" x="0.7" y="0.7" width="727.472" height="812.277" filterUnits="userSpaceOnUse" color-interpolation-filters="sRGB">
<feFlood flood-opacity="0" result="BackgroundImageFix"/>
<feColorMatrix in="SourceAlpha" type="matrix" values="0 0 0 0 0 0 0 0 0 0 0 0 0 0 0 0 0 0 127 0" result="hardAlpha"/>
<feOffset dx="4" dy="5"/>
<feGaussianBlur stdDeviation="2.65"/>
<feComposite in2="hardAlpha" operator="out"/>
<feColorMatrix type="matrix" values="0 0 0 0 0 0 0 0 0 0 0 0 0 0 0 0 0 0 0.28 0"/>
<feBlend mode="normal" in2="BackgroundImageFix" result="effect1_dropShadow_1_4"/>
<feBlend mode="normal" in="SourceGraphic" in2="effect1_dropShadow_1_4" result="shape"/>
</filter>
</defs>
</svg>
