<svg width="41" height="47" viewBox="0 0 41 47" fill="none" xmlns="http://www.w3.org/2000/svg">
<path id="Icon" d="M15.2365 38.4445C5.70408 41.4281 5.70408 33.4718 1.89111 32.4773M28.5819 44.4117V36.714C28.6534 35.7656 28.5306 34.8121 28.2216 33.917C27.9126 33.0219 27.4245 32.2057 26.7898 31.5226C32.7762 30.8264 39.0676 28.4594 39.0676 17.5992C39.0671 14.8221 38.0432 12.1515 36.2079 10.1402C37.0769 7.71056 37.0155 5.02502 36.0363 2.64143C36.0363 2.64143 33.7866 1.94526 28.5819 5.58524C24.2123 4.34968 19.6062 4.34968 15.2365 5.58524C10.0318 1.94526 7.78215 2.64143 7.78215 2.64143C6.80294 5.02502 6.74149 7.71056 7.61057 10.1402C5.76152 12.1664 4.73659 14.8611 4.75084 17.6588C4.75084 28.4395 11.0422 30.8065 17.0286 31.5822C16.4014 32.2585 15.9176 33.0649 15.6089 33.9491C15.3001 34.8332 15.1732 35.7753 15.2365 36.714V44.4117" stroke="#F4F6F7" stroke-width="3.48529" stroke-linecap="round" stroke-linejoin="round"/>
</svg>
