<svg width="44" height="43" viewBox="0 0 44 43" fill="none" xmlns="http://www.w3.org/2000/svg">
<g id="Icon">
<path d="M29.6582 14.6446C32.7751 14.6446 35.7643 15.8828 37.9682 18.0867C40.1721 20.2907 41.4103 23.2799 41.4103 26.3967V40.1075H33.5756V26.3967C33.5756 25.3578 33.1629 24.3614 32.4282 23.6267C31.6936 22.8921 30.6972 22.4794 29.6582 22.4794C28.6193 22.4794 27.6229 22.8921 26.8883 23.6267C26.1536 24.3614 25.7409 25.3578 25.7409 26.3967V40.1075H17.9062V26.3967C17.9062 23.2799 19.1443 20.2907 21.3483 18.0867C23.5522 15.8828 26.5414 14.6446 29.6582 14.6446Z" stroke="#F4F6F7" stroke-width="3.91736" stroke-linecap="round" stroke-linejoin="round"/>
<path d="M10.0715 16.6033H2.23676V40.1075H10.0715V16.6033Z" stroke="#F4F6F7" stroke-width="3.91736" stroke-linecap="round" stroke-linejoin="round"/>
<path d="M6.15411 10.7273C8.31761 10.7273 10.0715 8.97343 10.0715 6.80993C10.0715 4.64644 8.31761 2.89258 6.15411 2.89258C3.99061 2.89258 2.23676 4.64644 2.23676 6.80993C2.23676 8.97343 3.99061 10.7273 6.15411 10.7273Z" stroke="#F4F6F7" stroke-width="3.91736" stroke-linecap="round" stroke-linejoin="round"/>
</g>
</svg>
